<?xml version="1.0" encoding="utf-8"?><svg xmlns="http://www.w3.org/2000/svg" xmlns:xlink="http://www.w3.org/1999/xlink" width="524.41" height="145.04" viewBox="0 0 524.41 145.04"><g groupType="layer" groupName="image"><image preserveAspectRatio="none" width="524.41" height="145.04" x="0" y="0" xlink:href="AKB00590AC00ENG.png" /></g><g groupType="layer" groupName="Layer0"><text connectableId="1" font-family="'Arial'" font-size="7" fill="#000000" enclose="False" encloseFill="" whiteEdge="False" lineSpacePercentage="129" x="0" y="7.15" transform="translate(475.72,133.48) rotate(0,17.030849,6.77249999999999) scale(0.9834,1)"><tspan fill="#000000" font-family="'Arial'" font-size="7" font-weight="bold" dy="2.03">AKB00590</tspan></text><text connectableId="2" font-family="'Arial'" font-size="7" fill="#000000" enclose="False" encloseFill="" whiteEdge="False" lineSpacePercentage="129" x="0" y="7.15" transform="translate(510.35,133.46) rotate(0,4.97272600000002,6.77249999999999) scale(0.9834,1)"><tspan fill="#000000" font-family="'Arial'" font-size="7" font-weight="bold" dy="2.03">AB</tspan></text><text connectableId="3" font-family="'Arial'" font-size="6" fill="#000000" enclose="False" encloseFill="" whiteEdge="False" lineSpacePercentage="150" x="0" y="6.13" transform="translate(124.01,29.37) rotate(90,1.66833333333334,6.75) scale(1,1)"><tspan fill="#000000" font-family="'Arial'" font-size="6" dy="3">1</tspan></text><text connectableId="4" font-family="'Arial'" font-size="6" fill="#000000" enclose="False" encloseFill="" whiteEdge="False" lineSpacePercentage="150" x="0" y="6.13" transform="translate(132.33,29.37) rotate(90,1.66833333333334,6.75) scale(1,1)"><tspan fill="#000000" font-family="'Arial'" font-size="6" dy="3">2</tspan></text><text connectableId="5" font-family="'Arial'" font-size="6" fill="#000000" enclose="False" encloseFill="" whiteEdge="False" lineSpacePercentage="150" x="0" y="6.13" transform="translate(146.32,29.37) rotate(90,1.66833333333334,6.75) scale(1,1)"><tspan fill="#000000" font-family="'Arial'" font-size="6" dy="3">3</tspan></text><text connectableId="6" font-family="'Arial'" font-size="6" fill="#000000" enclose="False" encloseFill="" whiteEdge="False" lineSpacePercentage="150" x="0" y="6.13" transform="translate(152.81,29.37) rotate(90,1.66833333333334,6.75) scale(1,1)"><tspan fill="#000000" font-family="'Arial'" font-size="6" dy="3">4</tspan></text><text connectableId="7" font-family="'Arial'" font-size="6" fill="#000000" enclose="False" encloseFill="" whiteEdge="False" lineSpacePercentage="150" x="0" y="6.13" transform="translate(191.94,29.37) rotate(90,1.66833333333334,6.75) scale(1,1)"><tspan fill="#000000" font-family="'Arial'" font-size="6" dy="3">5</tspan></text><text connectableId="8" font-family="'Arial'" font-size="6" fill="#000000" enclose="False" encloseFill="" whiteEdge="False" lineSpacePercentage="150" x="0" y="6.13" transform="translate(198.45,29.37) rotate(90,1.66833333333334,6.75) scale(1,1)"><tspan fill="#000000" font-family="'Arial'" font-size="6" dy="3">6</tspan></text><text connectableId="9" font-family="'Arial'" font-size="6" fill="#000000" enclose="False" encloseFill="" whiteEdge="False" lineSpacePercentage="150" x="0" y="6.13" transform="translate(211.44,29.37) rotate(90,1.66833333333334,6.75) scale(1,1)"><tspan fill="#000000" font-family="'Arial'" font-size="6" dy="3">7</tspan></text><text connectableId="10" font-family="'Arial'" font-size="6" fill="#000000" enclose="False" encloseFill="" whiteEdge="False" lineSpacePercentage="150" x="0" y="6.13" transform="translate(218.05,29.37) rotate(90,1.66833333333334,6.75) scale(1,1)"><tspan fill="#000000" font-family="'Arial'" font-size="6" dy="3">8</tspan></text><text connectableId="11" font-family="'Arial'" font-size="6" fill="#000000" enclose="False" encloseFill="" whiteEdge="False" lineSpacePercentage="150" x="0" y="6.13" transform="translate(124.01,44.45) rotate(90,1.66833333333334,6.75) scale(1,1)"><tspan fill="#000000" font-family="'Arial'" font-size="6" dy="3">9</tspan></text><text connectableId="12" font-family="'Arial'" font-size="6" fill="#000000" enclose="False" encloseFill="" whiteEdge="False" lineSpacePercentage="150" x="0" y="6.13" transform="translate(130.665,44.445) rotate(90,3.33666666666667,6.75) scale(1,1)"><tspan fill="#000000" font-family="'Arial'" font-size="6" dy="3">10</tspan></text><text connectableId="13" font-family="'Arial'" font-size="6" fill="#000000" enclose="False" encloseFill="" whiteEdge="False" lineSpacePercentage="150" x="0" y="6.13" transform="translate(138.365,44.225) rotate(90,3.11333333333333,6.75) scale(1,1)"><tspan fill="#000000" font-family="'Arial'" font-size="6" dy="3">11</tspan></text><text connectableId="14" font-family="'Arial'" font-size="6" fill="#000000" enclose="False" encloseFill="" whiteEdge="False" lineSpacePercentage="150" x="0" y="6.13" transform="translate(144.655,44.445) rotate(90,3.33666666666667,6.75) scale(1,1)"><tspan fill="#000000" font-family="'Arial'" font-size="6" dy="3">12</tspan></text><text connectableId="15" font-family="'Arial'" font-size="6" fill="#000000" enclose="False" encloseFill="" whiteEdge="False" lineSpacePercentage="150" x="0" y="6.13" transform="translate(151.145,44.445) rotate(90,3.33666666666667,6.75) scale(1,1)"><tspan fill="#000000" font-family="'Arial'" font-size="6" dy="3">13</tspan></text><text connectableId="16" font-family="'Arial'" font-size="6" fill="#000000" enclose="False" encloseFill="" whiteEdge="False" lineSpacePercentage="150" x="0" y="6.13" transform="translate(157.825,44.445) rotate(90,3.33666666666667,6.75) scale(1,1)"><tspan fill="#000000" font-family="'Arial'" font-size="6" dy="3">14</tspan></text><text connectableId="17" font-family="'Arial'" font-size="6" fill="#000000" enclose="False" encloseFill="" whiteEdge="False" lineSpacePercentage="150" x="0" y="6.13" transform="translate(164.205,44.445) rotate(90,3.33666666666667,6.75) scale(1,1)"><tspan fill="#000000" font-family="'Arial'" font-size="6" dy="3">15</tspan></text><text connectableId="18" font-family="'Arial'" font-size="6" fill="#000000" enclose="False" encloseFill="" whiteEdge="False" lineSpacePercentage="150" x="0" y="6.13" transform="translate(170.545,44.445) rotate(90,3.33666666666667,6.75) scale(1,1)"><tspan fill="#000000" font-family="'Arial'" font-size="6" dy="3">16</tspan></text><text connectableId="19" font-family="'Arial'" font-size="6" fill="#000000" enclose="False" encloseFill="" whiteEdge="False" lineSpacePercentage="150" x="0" y="6.13" transform="translate(177.095,44.445) rotate(90,3.33666666666667,6.75) scale(1,1)"><tspan fill="#000000" font-family="'Arial'" font-size="6" dy="3">17</tspan></text><text connectableId="20" font-family="'Arial'" font-size="6" fill="#000000" enclose="False" encloseFill="" whiteEdge="False" lineSpacePercentage="150" x="0" y="6.13" transform="translate(183.705,44.445) rotate(90,3.33666666666667,6.75) scale(1,1)"><tspan fill="#000000" font-family="'Arial'" font-size="6" dy="3">18</tspan></text><text connectableId="21" font-family="'Arial'" font-size="6" fill="#000000" enclose="False" encloseFill="" whiteEdge="False" lineSpacePercentage="150" x="0" y="6.13" transform="translate(190.275,44.445) rotate(90,3.33666666666667,6.75) scale(1,1)"><tspan fill="#000000" font-family="'Arial'" font-size="6" dy="3">19</tspan></text><text connectableId="22" font-family="'Arial'" font-size="6" fill="#000000" enclose="False" encloseFill="" whiteEdge="False" lineSpacePercentage="150" x="0" y="6.13" transform="translate(196.785,44.445) rotate(90,3.33666666666667,6.75) scale(1,1)"><tspan fill="#000000" font-family="'Arial'" font-size="6" dy="3">20</tspan></text><text connectableId="23" font-family="'Arial'" font-size="6" fill="#000000" enclose="False" encloseFill="" whiteEdge="False" lineSpacePercentage="150" x="0" y="6.13" transform="translate(203.475,44.445) rotate(90,3.33666666666667,6.75) scale(1,1)"><tspan fill="#000000" font-family="'Arial'" font-size="6" dy="3">21</tspan></text><text connectableId="24" font-family="'Arial'" font-size="6" fill="#000000" enclose="False" encloseFill="" whiteEdge="False" lineSpacePercentage="150" x="0" y="6.13" transform="translate(326.735,60.285) rotate(90,3.33666666666667,6.75) scale(1,1)"><tspan fill="#000000" font-family="'Arial'" font-size="6" dy="3">91</tspan></text><text connectableId="25" font-family="'Arial'" font-size="6" fill="#000000" enclose="False" encloseFill="" whiteEdge="False" lineSpacePercentage="150" x="0" y="6.13" transform="translate(319.865,60.285) rotate(90,3.33666666666667,6.75) scale(1,1)"><tspan fill="#000000" font-family="'Arial'" font-size="6" dy="3">90</tspan></text><text connectableId="26" font-family="'Arial'" font-size="6" fill="#000000" enclose="False" encloseFill="" whiteEdge="False" lineSpacePercentage="150" x="0" y="6.13" transform="translate(394.965,44.445) rotate(90,3.33666666666667,6.75) scale(1,1)"><tspan fill="#000000" font-family="'Arial'" font-size="6" dy="3">89</tspan></text><text connectableId="27" font-family="'Arial'" font-size="6" fill="#000000" enclose="False" encloseFill="" whiteEdge="False" lineSpacePercentage="150" x="0" y="6.13" transform="translate(378.505,44.445) rotate(90,3.33666666666667,6.75) scale(1,1)"><tspan fill="#000000" font-family="'Arial'" font-size="6" dy="3">87</tspan></text><text connectableId="28" font-family="'Arial'" font-size="6" fill="#000000" enclose="False" encloseFill="" whiteEdge="False" lineSpacePercentage="150" x="0" y="6.13" transform="translate(371.925,44.445) rotate(90,3.33666666666667,6.75) scale(1,1)"><tspan fill="#000000" font-family="'Arial'" font-size="6" dy="3">86</tspan></text><text connectableId="29" font-family="'Arial'" font-size="6" fill="#000000" enclose="False" encloseFill="" whiteEdge="False" lineSpacePercentage="150" x="0" y="6.13" transform="translate(358.665,44.445) rotate(90,3.33666666666667,6.75) scale(1,1)"><tspan fill="#000000" font-family="'Arial'" font-size="6" dy="3">84</tspan></text><text connectableId="30" font-family="'Arial'" font-size="6" fill="#000000" enclose="False" encloseFill="" whiteEdge="False" lineSpacePercentage="150" x="0" y="6.13" transform="translate(365.205,44.445) rotate(90,3.33666666666667,6.75) scale(1,1)"><tspan fill="#000000" font-family="'Arial'" font-size="6" dy="3">85</tspan></text><text connectableId="31" font-family="'Arial'" font-size="6" fill="#000000" enclose="False" encloseFill="" whiteEdge="False" lineSpacePercentage="150" x="0" y="6.13" transform="translate(352.005,44.445) rotate(90,3.33666666666667,6.75) scale(1,1)"><tspan fill="#000000" font-family="'Arial'" font-size="6" dy="3">83</tspan></text><text connectableId="32" font-family="'Arial'" font-size="6" fill="#000000" enclose="False" encloseFill="" whiteEdge="False" lineSpacePercentage="150" x="0" y="6.13" transform="translate(345.795,44.445) rotate(90,3.33666666666667,6.75) scale(1,1)"><tspan fill="#000000" font-family="'Arial'" font-size="6" dy="3">82</tspan></text><text connectableId="33" font-family="'Arial'" font-size="6" fill="#000000" enclose="False" encloseFill="" whiteEdge="False" lineSpacePercentage="150" x="0" y="6.13" transform="translate(385.685,44.445) rotate(90,3.33666666666667,6.75) scale(1,1)"><tspan fill="#000000" font-family="'Arial'" font-size="6" dy="3">88</tspan></text><text connectableId="34" font-family="'Arial'" font-size="6" fill="#000000" enclose="False" encloseFill="" whiteEdge="False" lineSpacePercentage="150" x="0" y="6.13" transform="translate(339.225,60.285) rotate(90,3.33666666666667,6.75) scale(1,1)"><tspan fill="#000000" font-family="'Arial'" font-size="6" dy="3">92</tspan></text><text connectableId="35" font-family="'Arial'" font-size="6" fill="#000000" enclose="False" encloseFill="" whiteEdge="False" lineSpacePercentage="150" x="0" y="6.13" transform="translate(345.795,60.285) rotate(90,3.33666666666667,6.75) scale(1,1)"><tspan fill="#000000" font-family="'Arial'" font-size="6" dy="3">93</tspan></text><text connectableId="36" font-family="'Arial'" font-size="6" fill="#000000" enclose="False" encloseFill="" whiteEdge="False" lineSpacePercentage="150" x="0" y="6.13" transform="translate(352.005,60.285) rotate(90,3.33666666666667,6.75) scale(1,1)"><tspan fill="#000000" font-family="'Arial'" font-size="6" dy="3">94</tspan></text><text connectableId="37" font-family="'Arial'" font-size="6" fill="#000000" enclose="False" encloseFill="" whiteEdge="False" lineSpacePercentage="150" x="0" y="6.13" transform="translate(365.205,60.285) rotate(90,3.33666666666667,6.75) scale(1,1)"><tspan fill="#000000" font-family="'Arial'" font-size="6" dy="3">95</tspan></text><text connectableId="38" font-family="'Arial'" font-size="6" fill="#000000" enclose="False" encloseFill="" whiteEdge="False" lineSpacePercentage="150" x="0" y="6.13" transform="translate(371.925,60.285) rotate(90,3.33666666666667,6.75) scale(1,1)"><tspan fill="#000000" font-family="'Arial'" font-size="6" dy="3">96</tspan></text><text connectableId="39" font-family="'Arial'" font-size="6" fill="#000000" enclose="False" encloseFill="" whiteEdge="False" lineSpacePercentage="150" x="0" y="6.13" transform="translate(385.685,60.285) rotate(90,3.33666666666667,6.75) scale(1,1)"><tspan fill="#000000" font-family="'Arial'" font-size="6" dy="3">97</tspan></text><text connectableId="40" font-family="'Arial'" font-size="6" fill="#000000" enclose="False" encloseFill="" whiteEdge="False" lineSpacePercentage="150" x="0" y="6.13" transform="translate(394.965,60.285) rotate(90,3.33666666666667,6.75) scale(1,1)"><tspan fill="#000000" font-family="'Arial'" font-size="6" dy="3">98</tspan></text><text connectableId="41" font-family="'Arial'" font-size="6" fill="#000000" enclose="False" encloseFill="" whiteEdge="False" lineSpacePercentage="150" x="0" y="6.13" transform="translate(234.605,29.375) rotate(90,3.33666666666667,6.75) scale(1,1)"><tspan fill="#000000" font-family="'Arial'" font-size="6" dy="3">41</tspan></text><text connectableId="42" font-family="'Arial'" font-size="6" fill="#000000" enclose="False" encloseFill="" whiteEdge="False" lineSpacePercentage="150" x="0" y="6.13" transform="translate(216.385,60.285) rotate(90,3.33666666666667,6.75) scale(1,1)"><tspan fill="#000000" font-family="'Arial'" font-size="6" dy="3">35</tspan></text><text connectableId="43" font-family="'Arial'" font-size="6" fill="#000000" enclose="False" encloseFill="" whiteEdge="False" lineSpacePercentage="150" x="0" y="6.13" transform="translate(209.775,60.285) rotate(90,3.33666666666667,6.75) scale(1,1)"><tspan fill="#000000" font-family="'Arial'" font-size="6" dy="3">34</tspan></text><text connectableId="44" font-family="'Arial'" font-size="6" fill="#000000" enclose="False" encloseFill="" whiteEdge="False" lineSpacePercentage="150" x="0" y="6.13" transform="translate(196.785,60.285) rotate(90,3.33666666666667,6.75) scale(1,1)"><tspan fill="#000000" font-family="'Arial'" font-size="6" dy="3">33</tspan></text><text connectableId="45" font-family="'Arial'" font-size="6" fill="#000000" enclose="False" encloseFill="" whiteEdge="False" lineSpacePercentage="150" x="0" y="6.13" transform="translate(190.275,60.285) rotate(90,3.33666666666667,6.75) scale(1,1)"><tspan fill="#000000" font-family="'Arial'" font-size="6" dy="3">32</tspan></text><text connectableId="46" font-family="'Arial'" font-size="6" fill="#000000" enclose="False" encloseFill="" whiteEdge="False" lineSpacePercentage="150" x="0" y="6.13" transform="translate(183.705,60.285) rotate(90,3.33666666666667,6.75) scale(1,1)"><tspan fill="#000000" font-family="'Arial'" font-size="6" dy="3">31</tspan></text><text connectableId="47" font-family="'Arial'" font-size="6" fill="#000000" enclose="False" encloseFill="" whiteEdge="False" lineSpacePercentage="150" x="0" y="6.13" transform="translate(177.095,60.285) rotate(90,3.33666666666667,6.75) scale(1,1)"><tspan fill="#000000" font-family="'Arial'" font-size="6" dy="3">30</tspan></text><text connectableId="48" font-family="'Arial'" font-size="6" fill="#000000" enclose="False" encloseFill="" whiteEdge="False" lineSpacePercentage="150" x="0" y="6.13" transform="translate(164.205,60.285) rotate(90,3.33666666666667,6.75) scale(1,1)"><tspan fill="#000000" font-family="'Arial'" font-size="6" dy="3">29</tspan></text><text connectableId="49" font-family="'Arial'" font-size="6" fill="#000000" enclose="False" encloseFill="" whiteEdge="False" lineSpacePercentage="150" x="0" y="6.13" transform="translate(157.825,60.285) rotate(90,3.33666666666667,6.75) scale(1,1)"><tspan fill="#000000" font-family="'Arial'" font-size="6" dy="3">28</tspan></text><text connectableId="50" font-family="'Arial'" font-size="6" fill="#000000" enclose="False" encloseFill="" whiteEdge="False" lineSpacePercentage="150" x="0" y="6.13" transform="translate(151.145,60.285) rotate(90,3.33666666666667,6.75) scale(1,1)"><tspan fill="#000000" font-family="'Arial'" font-size="6" dy="3">27</tspan></text><text connectableId="51" font-family="'Arial'" font-size="6" fill="#000000" enclose="False" encloseFill="" whiteEdge="False" lineSpacePercentage="150" x="0" y="6.13" transform="translate(144.655,60.285) rotate(90,3.33666666666667,6.75) scale(1,1)"><tspan fill="#000000" font-family="'Arial'" font-size="6" dy="3">26</tspan></text><text connectableId="52" font-family="'Arial'" font-size="6" fill="#000000" enclose="False" encloseFill="" whiteEdge="False" lineSpacePercentage="150" x="0" y="6.13" transform="translate(130.665,60.285) rotate(90,3.33666666666667,6.75) scale(1,1)"><tspan fill="#000000" font-family="'Arial'" font-size="6" dy="3">25</tspan></text><text connectableId="53" font-family="'Arial'" font-size="6" fill="#000000" enclose="False" encloseFill="" whiteEdge="False" lineSpacePercentage="150" x="0" y="6.13" transform="translate(122.345,60.285) rotate(90,3.33666666666667,6.75) scale(1,1)"><tspan fill="#000000" font-family="'Arial'" font-size="6" dy="3">24</tspan></text><text connectableId="54" font-family="'Arial'" font-size="6" fill="#000000" enclose="False" encloseFill="" whiteEdge="False" lineSpacePercentage="150" x="0" y="6.13" transform="translate(216.385,44.445) rotate(90,3.33666666666667,6.75) scale(1,1)"><tspan fill="#000000" font-family="'Arial'" font-size="6" dy="3">23</tspan></text><text connectableId="55" font-family="'Arial'" font-size="6" fill="#000000" enclose="False" encloseFill="" whiteEdge="False" lineSpacePercentage="150" x="0" y="6.13" transform="translate(209.775,44.445) rotate(90,3.33666666666667,6.75) scale(1,1)"><tspan fill="#000000" font-family="'Arial'" font-size="6" dy="3">22</tspan></text><text connectableId="56" font-family="'Arial'" font-size="6" fill="#000000" enclose="False" encloseFill="" whiteEdge="False" lineSpacePercentage="150" x="0" y="6.13" transform="translate(257.315,60.285) rotate(90,3.33666666666667,6.75) scale(1,1)"><tspan fill="#000000" font-family="'Arial'" font-size="6" dy="3">60</tspan></text><text connectableId="57" font-family="'Arial'" font-size="6" fill="#000000" enclose="False" encloseFill="" whiteEdge="False" lineSpacePercentage="150" x="0" y="6.13" transform="translate(243.245,60.285) rotate(90,3.33666666666667,6.75) scale(1,1)"><tspan fill="#000000" font-family="'Arial'" font-size="6" dy="3">59</tspan></text><text connectableId="58" font-family="'Arial'" font-size="6" fill="#000000" enclose="False" encloseFill="" whiteEdge="False" lineSpacePercentage="150" x="0" y="6.13" transform="translate(234.605,60.285) rotate(90,3.33666666666667,6.75) scale(1,1)"><tspan fill="#000000" font-family="'Arial'" font-size="6" dy="3">58</tspan></text><text connectableId="59" font-family="'Arial'" font-size="6" fill="#000000" enclose="False" encloseFill="" whiteEdge="False" lineSpacePercentage="150" x="0" y="6.13" transform="translate(303.005,44.445) rotate(90,3.33666666666667,6.75) scale(1,1)"><tspan fill="#000000" font-family="'Arial'" font-size="6" dy="3">57</tspan></text><text connectableId="60" font-family="'Arial'" font-size="6" fill="#000000" enclose="False" encloseFill="" whiteEdge="False" lineSpacePercentage="150" x="0" y="6.13" transform="translate(296.195,44.445) rotate(90,3.33666666666667,6.75) scale(1,1)"><tspan fill="#000000" font-family="'Arial'" font-size="6" dy="3">56</tspan></text><text connectableId="61" font-family="'Arial'" font-size="6" fill="#000000" enclose="False" encloseFill="" whiteEdge="False" lineSpacePercentage="150" x="0" y="6.13" transform="translate(289.815,44.445) rotate(90,3.33666666666667,6.75) scale(1,1)"><tspan fill="#000000" font-family="'Arial'" font-size="6" dy="3">55</tspan></text><text connectableId="62" font-family="'Arial'" font-size="6" fill="#000000" enclose="False" encloseFill="" whiteEdge="False" lineSpacePercentage="150" x="0" y="6.13" transform="translate(282.795,44.445) rotate(90,3.33666666666667,6.75) scale(1,1)"><tspan fill="#000000" font-family="'Arial'" font-size="6" dy="3">54</tspan></text><text connectableId="63" font-family="'Arial'" font-size="6" fill="#000000" enclose="False" encloseFill="" whiteEdge="False" lineSpacePercentage="150" x="0" y="6.13" transform="translate(276.765,44.445) rotate(90,3.33666666666667,6.75) scale(1,1)"><tspan fill="#000000" font-family="'Arial'" font-size="6" dy="3">53</tspan></text><text connectableId="64" font-family="'Arial'" font-size="6" fill="#000000" enclose="False" encloseFill="" whiteEdge="False" lineSpacePercentage="150" x="0" y="6.13" transform="translate(270.215,44.445) rotate(90,3.33666666666667,6.75) scale(1,1)"><tspan fill="#000000" font-family="'Arial'" font-size="6" dy="3">52</tspan></text><text connectableId="65" font-family="'Arial'" font-size="6" fill="#000000" enclose="False" encloseFill="" whiteEdge="False" lineSpacePercentage="150" x="0" y="6.13" transform="translate(264.065,44.445) rotate(90,3.33666666666667,6.75) scale(1,1)"><tspan fill="#000000" font-family="'Arial'" font-size="6" dy="3">51</tspan></text><text connectableId="66" font-family="'Arial'" font-size="6" fill="#000000" enclose="False" encloseFill="" whiteEdge="False" lineSpacePercentage="150" x="0" y="6.13" transform="translate(257.315,44.445) rotate(90,3.33666666666667,6.75) scale(1,1)"><tspan fill="#000000" font-family="'Arial'" font-size="6" dy="3">50</tspan></text><text connectableId="67" font-family="'Arial'" font-size="6" fill="#000000" enclose="False" encloseFill="" whiteEdge="False" lineSpacePercentage="150" x="0" y="6.13" transform="translate(250.955,44.445) rotate(90,3.33666666666666,6.75) scale(1,1)"><tspan fill="#000000" font-family="'Arial'" font-size="6" dy="3">49</tspan></text><text connectableId="68" font-family="'Arial'" font-size="6" fill="#000000" enclose="False" encloseFill="" whiteEdge="False" lineSpacePercentage="150" x="0" y="6.13" transform="translate(243.245,44.445) rotate(90,3.33666666666667,6.75) scale(1,1)"><tspan fill="#000000" font-family="'Arial'" font-size="6" dy="3">48</tspan></text><text connectableId="69" font-family="'Arial'" font-size="6" fill="#000000" enclose="False" encloseFill="" whiteEdge="False" lineSpacePercentage="150" x="0" y="6.13" transform="translate(234.605,44.445) rotate(90,3.33666666666667,6.75) scale(1,1)"><tspan fill="#000000" font-family="'Arial'" font-size="6" dy="3">47</tspan></text><text connectableId="70" font-family="'Arial'" font-size="6" fill="#000000" enclose="False" encloseFill="" whiteEdge="False" lineSpacePercentage="150" x="0" y="6.13" transform="translate(303.005,29.375) rotate(90,3.33666666666667,6.75) scale(1,1)"><tspan fill="#000000" font-family="'Arial'" font-size="6" dy="3">46</tspan></text><text connectableId="71" font-family="'Arial'" font-size="6" fill="#000000" enclose="False" encloseFill="" whiteEdge="False" lineSpacePercentage="150" x="0" y="6.13" transform="translate(296.195,29.375) rotate(90,3.33666666666667,6.75) scale(1,1)"><tspan fill="#000000" font-family="'Arial'" font-size="6" dy="3">45</tspan></text><text connectableId="72" font-family="'Arial'" font-size="6" fill="#000000" enclose="False" encloseFill="" whiteEdge="False" lineSpacePercentage="150" x="0" y="6.13" transform="translate(289.815,29.375) rotate(90,3.33666666666667,6.75) scale(1,1)"><tspan fill="#000000" font-family="'Arial'" font-size="6" dy="3">44</tspan></text><text connectableId="73" font-family="'Arial'" font-size="6" fill="#000000" enclose="False" encloseFill="" whiteEdge="False" lineSpacePercentage="150" x="0" y="6.13" transform="translate(250.955,29.375) rotate(90,3.33666666666666,6.75) scale(1,1)"><tspan fill="#000000" font-family="'Arial'" font-size="6" dy="3">43</tspan></text><text connectableId="74" font-family="'Arial'" font-size="6" fill="#000000" enclose="False" encloseFill="" whiteEdge="False" lineSpacePercentage="150" x="0" y="6.13" transform="translate(243.245,29.375) rotate(90,3.33666666666667,6.75) scale(1,1)"><tspan fill="#000000" font-family="'Arial'" font-size="6" dy="3">42</tspan></text><text connectableId="75" font-family="'Arial'" font-size="6" fill="#000000" enclose="False" encloseFill="" whiteEdge="False" lineSpacePercentage="150" x="0" y="6.13" transform="translate(276.765,60.285) rotate(90,3.33666666666667,6.75) scale(1,1)"><tspan fill="#000000" font-family="'Arial'" font-size="6" dy="3">63</tspan></text><text connectableId="76" font-family="'Arial'" font-size="6" fill="#000000" enclose="False" encloseFill="" whiteEdge="False" lineSpacePercentage="150" x="0" y="6.13" transform="translate(264.065,60.285) rotate(90,3.33666666666667,6.75) scale(1,1)"><tspan fill="#000000" font-family="'Arial'" font-size="6" dy="3">61</tspan></text><text connectableId="77" font-family="'Arial'" font-size="6" fill="#000000" enclose="False" encloseFill="" whiteEdge="False" lineSpacePercentage="150" x="0" y="6.13" transform="translate(270.215,60.285) rotate(90,3.33666666666667,6.75) scale(1,1)"><tspan fill="#000000" font-family="'Arial'" font-size="6" dy="3">62</tspan></text><text connectableId="78" font-family="'Arial'" font-size="6" fill="#000000" enclose="False" encloseFill="" whiteEdge="False" lineSpacePercentage="150" x="0" y="6.13" transform="translate(289.815,60.285) rotate(90,3.33666666666667,6.75) scale(1,1)"><tspan fill="#000000" font-family="'Arial'" font-size="6" dy="3">64</tspan></text><text connectableId="79" font-family="'Arial'" font-size="6" fill="#000000" enclose="False" encloseFill="" whiteEdge="False" lineSpacePercentage="150" x="0" y="6.13" transform="translate(296.195,60.285) rotate(90,3.33666666666667,6.75) scale(1,1)"><tspan fill="#000000" font-family="'Arial'" font-size="6" dy="3">65</tspan></text><text connectableId="80" font-family="'Arial'" font-size="6" fill="#000000" enclose="False" encloseFill="" whiteEdge="False" lineSpacePercentage="150" x="0" y="6.13" transform="translate(303.005,60.285) rotate(90,3.33666666666667,6.75) scale(1,1)"><tspan fill="#000000" font-family="'Arial'" font-size="6" dy="3">66</tspan></text><text connectableId="81" font-family="'Arial'" font-size="6" fill="#000000" enclose="False" encloseFill="" whiteEdge="False" lineSpacePercentage="150" x="0" y="6.13" transform="translate(319.865,29.375) rotate(90,3.33666666666667,6.75) scale(1,1)"><tspan fill="#000000" font-family="'Arial'" font-size="6" dy="3">71</tspan></text><text connectableId="82" font-family="'Arial'" font-size="6" fill="#000000" enclose="False" encloseFill="" whiteEdge="False" lineSpacePercentage="150" x="0" y="6.13" transform="translate(326.735,29.375) rotate(90,3.33666666666667,6.75) scale(1,1)"><tspan fill="#000000" font-family="'Arial'" font-size="6" dy="3">72</tspan></text><text connectableId="83" font-family="'Arial'" font-size="6" fill="#000000" enclose="False" encloseFill="" whiteEdge="False" lineSpacePercentage="150" x="0" y="6.13" transform="translate(333.185,29.375) rotate(90,3.33666666666667,6.75) scale(1,1)"><tspan fill="#000000" font-family="'Arial'" font-size="6" dy="3">73</tspan></text><text connectableId="84" font-family="'Arial'" font-size="6" fill="#000000" enclose="False" encloseFill="" whiteEdge="False" lineSpacePercentage="150" x="0" y="6.13" transform="translate(339.225,29.375) rotate(90,3.33666666666667,6.75) scale(1,1)"><tspan fill="#000000" font-family="'Arial'" font-size="6" dy="3">74</tspan></text><text connectableId="85" font-family="'Arial'" font-size="6" fill="#000000" enclose="False" encloseFill="" whiteEdge="False" lineSpacePercentage="150" x="0" y="6.13" transform="translate(378.505,29.375) rotate(90,3.33666666666667,6.75) scale(1,1)"><tspan fill="#000000" font-family="'Arial'" font-size="6" dy="3">75</tspan></text><text connectableId="86" font-family="'Arial'" font-size="6" fill="#000000" enclose="False" encloseFill="" whiteEdge="False" lineSpacePercentage="150" x="0" y="6.13" transform="translate(385.685,29.375) rotate(90,3.33666666666667,6.75) scale(1,1)"><tspan fill="#000000" font-family="'Arial'" font-size="6" dy="3">76</tspan></text><text connectableId="87" font-family="'Arial'" font-size="6" fill="#000000" enclose="False" encloseFill="" whiteEdge="False" lineSpacePercentage="150" x="0" y="6.13" transform="translate(394.965,29.375) rotate(90,3.33666666666667,6.75) scale(1,1)"><tspan fill="#000000" font-family="'Arial'" font-size="6" dy="3">77</tspan></text><text connectableId="88" font-family="'Arial'" font-size="6" fill="#000000" enclose="False" encloseFill="" whiteEdge="False" lineSpacePercentage="150" x="0" y="6.13" transform="translate(319.865,44.445) rotate(90,3.33666666666667,6.75) scale(1,1)"><tspan fill="#000000" font-family="'Arial'" font-size="6" dy="3">78</tspan></text><text connectableId="89" font-family="'Arial'" font-size="6" fill="#000000" enclose="False" encloseFill="" whiteEdge="False" lineSpacePercentage="150" x="0" y="6.13" transform="translate(326.735,44.445) rotate(90,3.33666666666667,6.75) scale(1,1)"><tspan fill="#000000" font-family="'Arial'" font-size="6" dy="3">79</tspan></text><text connectableId="90" font-family="'Arial'" font-size="6" fill="#000000" enclose="False" encloseFill="" whiteEdge="False" lineSpacePercentage="150" x="0" y="6.13" transform="translate(333.185,44.445) rotate(90,3.33666666666667,6.75) scale(1,1)"><tspan fill="#000000" font-family="'Arial'" font-size="6" dy="3">80</tspan></text><text connectableId="91" font-family="'Arial'" font-size="6" fill="#000000" enclose="False" encloseFill="" whiteEdge="False" lineSpacePercentage="150" x="0" y="6.13" transform="translate(339.225,44.445) rotate(90,3.33666666666667,6.75) scale(1,1)"><tspan fill="#000000" font-family="'Arial'" font-size="6" dy="3">81</tspan></text></g></svg>